<svg xmlns="http://www.w3.org/2000/svg" width="128" height="128" viewBox="0 0 128 128">
  <polygon fill="black" points="64,4 77,25 98,18 103,40 122,52 113,72 122,95 103,108 98,128 77,118 64,128 51,118 30,128 25,108 6,95 15,72 6,52 25,40 30,18 51,25"/>

  <g fill="white">
    <path d="M 54 85 Q 44 65 69 65 Q 94 65 84 85 Q 79 110 69 110 Q 59 110 54 85 Z" />
    <ellipse cx="38" cy="55" rx="9" ry="11" transform="rotate(-15 38 55)" />
    <ellipse cx="56" cy="46" rx="7" ry="9" transform="rotate(-5 56 46)" />
    <ellipse cx="74" cy="45" rx="7" ry="9" transform="rotate(5 74 45)" />
    <ellipse cx="90" cy="50" rx="6" ry="8" transform="rotate(15 90 50)" />
    <ellipse cx="102" cy="62" rx="5" ry="7" transform="rotate(25 102 62)" />
  </g>
</svg>
