<?xml version="1.0" encoding="UTF-8"?>
<svg xmlns="http://www.w3.org/2000/svg" width="128" height="128" viewBox="0 0 128 128">
  <!-- Sasquatch footprint background -->
  <polygon fill="black" points="64,4 77,25 98,18 103,40 122,52 113,72 122,95 103,108 98,128 77,118 64,128 51,118 30,128 25,108 6,95 15,72 6,52 25,40 30,18 51,25"/>

  <!-- Sasquatch eye peering through trees/forest -->
  <g fill="white">
    <!-- Large Sasquatch eye -->
    <ellipse cx="64" cy="64" rx="30" ry="18"/>
    <!-- Eye socket/brow ridge -->
    <path d="M 34 50 Q 64 45 94 50 Q 94 55 64 60 Q 34 55 34 50 Z" fill="black" opacity="0.3"/>
    <!-- Pupil -->
    <ellipse cx="64" cy="64" rx="15" ry="12" fill="black"/>
    <!-- Eye shine -->
    <ellipse cx="67" cy="61" rx="4" ry="3" fill="white"/>
    <ellipse cx="69" cy="59" rx="1.5" ry="1" fill="white"/>
  </g>

  <!-- Tree silhouettes framing the eye -->
  <g fill="white" opacity="0.6">
    <!-- Left tree -->
    <path d="M 15 95 L 20 95 L 22 85 L 18 85 L 25 75 L 15 75 L 20 65 L 10 65 L 15 55 L 25 60 L 30 50 L 20 45 L 15 35 L 25 40 L 35 30 L 25 25 L 30 15 L 20 20 L 15 10 L 10 20 L 5 15 L 10 25 L 0 30 L 10 40 L 5 35 L 10 45 L 0 50 L 5 60 L 10 55 L 5 65 L 10 75 L 0 75 L 7 85 L 3 85 L 5 95 Z"/>
    <!-- Right tree -->
    <path d="M 113 95 L 108 95 L 106 85 L 110 85 L 103 75 L 113 75 L 108 65 L 118 65 L 113 55 L 103 60 L 98 50 L 108 45 L 113 35 L 103 40 L 93 30 L 103 25 L 98 15 L 108 20 L 113 10 L 118 20 L 123 15 L 118 25 L 128 30 L 118 40 L 123 35 L 118 45 L 128 50 L 123 60 L 118 55 L 123 65 L 118 75 L 128 75 L 121 85 L 125 85 L 123 95 Z"/>
  </g>
</svg>
