<?xml version="1.0" encoding="UTF-8"?>
<svg width="48" height="48" viewBox="0 0 48 48" xmlns="http://www.w3.org/2000/svg">
  <rect width="48" height="48" rx="8" fill="#222" />
  <circle cx="24" cy="24" r="9" fill="#f5f5f5" />
  <g fill="#f5f5f5">
    <rect x="22" y="3" width="4" height="8" rx="2" />
    <rect x="22" y="37" width="4" height="8" rx="2" />
    <rect x="3" y="22" width="8" height="4" rx="2" />
    <rect x="37" y="22" width="8" height="4" rx="2" />
    <rect x="9" y="9" width="6" height="6" rx="2" transform="rotate(-45 12 12)" />
    <rect x="33" y="9" width="6" height="6" rx="2" transform="rotate(45 36 12)" />
    <rect x="9" y="33" width="6" height="6" rx="2" transform="rotate(45 12 36)" />
    <rect x="33" y="33" width="6" height="6" rx="2" transform="rotate(-45 36 36)" />
  </g>
</svg>
